<?xml version="1.0" encoding="UTF-8" standalone="no"?>
<!-- Created with Inkscape (http://www.inkscape.org/) -->

<svg
   xmlns:dc="http://purl.org/dc/elements/1.1/"
   xmlns:cc="http://creativecommons.org/ns#"
   xmlns:rdf="http://www.w3.org/1999/02/22-rdf-syntax-ns#"
   xmlns:svg="http://www.w3.org/2000/svg"
   xmlns="http://www.w3.org/2000/svg"
   xmlns:sodipodi="http://sodipodi.sourceforge.net/DTD/sodipodi-0.dtd"
   xmlns:inkscape="http://www.inkscape.org/namespaces/inkscape"
   version="1.1"
   id="svg77"
   width="2000"
   height="2000"
   viewBox="0 0 2000 2000"
   sodipodi:docname="telegram-logo-negro.svg"
   inkscape:version="0.92.3 (2405546, 2018-03-11)"
   inkscape:export-filename="/home/amh/Documentos/telegram-logo-circulo-negro.png"
   inkscape:export-xdpi="96"
   inkscape:export-ydpi="96">
  <metadata
     id="metadata83">
    <rdf:RDF>
      <cc:Work
         rdf:about="">
        <dc:format>image/svg+xml</dc:format>
        <dc:type
           rdf:resource="http://purl.org/dc/dcmitype/StillImage" />
        <dc:title></dc:title>
      </cc:Work>
    </rdf:RDF>
  </metadata>
  <defs
     id="defs81" />
  <sodipodi:namedview
     pagecolor="#ffffff"
     bordercolor="#666666"
     borderopacity="1"
     objecttolerance="10"
     gridtolerance="10"
     guidetolerance="10"
     inkscape:pageopacity="0"
     inkscape:pageshadow="2"
     inkscape:window-width="1853"
     inkscape:window-height="1025"
     id="namedview79"
     showgrid="false"
     showguides="true"
     inkscape:guide-bbox="true"
     inkscape:zoom="0.236"
     inkscape:cx="-257.76226"
     inkscape:cy="768.89705"
     inkscape:window-x="67"
     inkscape:window-y="27"
     inkscape:window-maximized="1"
     inkscape:current-layer="svg77">
    <sodipodi:guide
       position="63.493115,1062.9635"
       orientation="1,0"
       id="guide93"
       inkscape:locked="false" />
    <sodipodi:guide
       position="988.89146,103.32261"
       orientation="0,1"
       id="guide101"
       inkscape:locked="false" />
    <sodipodi:guide
       position="1914.7246,1016.4195"
       orientation="1,0"
       id="guide107"
       inkscape:locked="false" />
    <sodipodi:guide
       position="-859.91376,1856.528"
       orientation="0,1"
       id="guide113"
       inkscape:locked="false"
       inkscape:label=""
       inkscape:color="rgb(0,0,255)" />
    <sodipodi:guide
       position="721.71333,907.8532"
       orientation="0,1"
       id="guide151"
       inkscape:locked="false" />
    <sodipodi:guide
       position="702.98699,896.24287"
       orientation="1,0"
       id="guide153"
       inkscape:locked="false" />
  </sodipodi:namedview>
  <circle
     id="path109"
     cx="989.10889"
     cy="969.08722"
     r="925.61572" />
  <circle
     style="fill:#ffffff"
     id="path111"
     cx="989.10889"
     cy="970.07446"
     r="875.6673" />
  <path
     style="fill:#000000"
     d="m 1229.3199,1447.0646 c -16.9869,-4.5868 -21.168,-7.1694 -68.3199,-42.1998 -24.475,-18.1832 -76.5456,-56.8332 -115.7125,-85.8891 l -71.21252,-52.8288 -55.28749,53.49 c -30.40812,29.4194 -58.09599,55.5989 -61.5286,58.1765 -8.72357,6.5507 -17.61406,11.7991 -24.1727,14.2701 -5.76027,2.1701 -16.77166,4.5932 -17.45704,3.8415 -0.21309,-0.2338 3.76138,-53.4473 8.83214,-118.2523 l 9.21958,-117.8273 4.40957,-4.2992 C 840.5157,1153.1817 937,1065.0005 1052.5,959.58808 1168,854.17567 1263.9625,766.11011 1265.75,763.88684 c 5.764,-7.16915 4.059,-12.20903 -4.75,-14.04091 -6.7307,-1.39968 -13.5727,0.28795 -22,5.42643 -3.025,1.84447 -124.7109,78.39743 -270.41317,170.11769 L 702.9246,1092.5287 587.58683,1056.6529 c -63.75372,-19.8306 -118.76761,-36.2501 -122.04412,-37.1653 -21.90356,-6.1181 -31.25779,-19.81788 -24.07139,-35.25392 5.13321,-11.02587 12.61876,-17.52025 29.58449,-25.66719 9.28325,-4.45782 892.86339,-345.93145 910.44419,-351.85566 7.6276,-2.57028 10.6012,-3.04632 19.5,-3.12179 9.6524,-0.0818 10.9758,0.14458 16.394,2.80496 12.3882,6.08272 21.9426,19.19688 25.2122,34.606 3.3538,15.80573 7.0401,-2.97973 -77.102,392.914 -42.7153,200.9777 -78.78,369.2777 -80.144,374 -5.3986,18.6915 -14.7278,32.1832 -26.1018,37.748 -7.4941,3.6665 -19.4756,4.2279 -29.9385,1.4026 z"
     id="path87"
     inkscape:connector-curvature="0"
     sodipodi:nodetypes="ccccscccccsccscssscscssscscsc" />
</svg>
